<svg xmlns="http://www.w3.org/2000/svg" width="20.917" height="25.501" viewBox="0 0 20.917 25.501">
  <g id="apple" transform="translate(-46.022)">
    <path id="Path_1" data-name="Path 1" d="M52.957,137.584c-3.8-.022-6.935-7.769-6.935-11.715,0-6.445,4.835-7.856,6.7-7.856a7.708,7.708,0,0,1,2.527.622,5.649,5.649,0,0,0,1.443.414,4.491,4.491,0,0,0,1.035-.336,8.3,8.3,0,0,1,3.12-.754h.007a6.4,6.4,0,0,1,5.352,2.7l.39.587-.562.424a4.727,4.727,0,0,0-2.267,3.9,4.4,4.4,0,0,0,2.455,4.068c.352.212.716.43.716.907,0,.312-2.486,7-6.1,7a4.9,4.9,0,0,1-2.059-.5,4.175,4.175,0,0,0-1.833-.441A4.714,4.714,0,0,0,55.5,137a7.108,7.108,0,0,1-2.517.587Z" transform="translate(0 -112.083)" fill="#3b3b3b"/>
    <path id="Path_2" data-name="Path 2" d="M259.945,0c.094,3.391-2.331,5.743-4.753,5.6C254.793,2.89,257.614,0,259.945,0Z" transform="translate(-198.716)" fill="#3b3b3b"/>
  </g>
</svg>
