<svg xmlns="http://www.w3.org/2000/svg" width="182.95" height="274.375" viewBox="0 0 182.95 274.375">
  <g id="Dot_pattern" transform="translate(-5468.337 -6381.105)">
    <g id="Group_64" data-name="Group 64" transform="translate(5468.337 6381.105)">
      <g id="Group_54" data-name="Group 54">
        <path id="Path_159" data-name="Path 159" d="M5478.933,6386.4a5.3,5.3,0,1,1-5.3-5.3A5.3,5.3,0,0,1,5478.933,6386.4Z" transform="translate(-5468.337 -6381.105)" fill="#dbdbdb"/>
      </g>
      <g id="Group_55" data-name="Group 55" transform="translate(43.091)">
        <path id="Path_160" data-name="Path 160" d="M5485.707,6391.673a5.3,5.3,0,1,1,4.72-5.82A5.3,5.3,0,0,1,5485.707,6391.673Z" transform="translate(-5479.86 -6381.106)" fill="#dbdbdb"/>
      </g>
      <g id="Group_56" data-name="Group 56" transform="translate(86.179)">
        <path id="Path_161" data-name="Path 161" d="M5497.232,6391.673a5.3,5.3,0,1,1,4.718-5.82A5.3,5.3,0,0,1,5497.232,6391.673Z" transform="translate(-5491.385 -6381.106)" fill="#dbdbdb"/>
      </g>
      <g id="Group_57" data-name="Group 57" transform="translate(172.357)">
        <path id="Path_162" data-name="Path 162" d="M5520.28,6391.673a5.3,5.3,0,1,1,4.717-5.82A5.3,5.3,0,0,1,5520.28,6391.673Z" transform="translate(-5514.433 -6381.106)" fill="#dbdbdb"/>
      </g>
      <g id="Group_58" data-name="Group 58" transform="translate(129.268)">
        <path id="Path_163" data-name="Path 163" d="M5508.757,6391.673a5.3,5.3,0,1,1,4.717-5.82A5.3,5.3,0,0,1,5508.757,6391.673Z" transform="translate(-5502.91 -6381.106)" fill="#dbdbdb"/>
      </g>
      <g id="Group_59" data-name="Group 59" transform="translate(0 37.63)">
        <path id="Path_164" data-name="Path 164" d="M5478.933,6396.464a5.3,5.3,0,1,1-5.3-5.3A5.3,5.3,0,0,1,5478.933,6396.464Z" transform="translate(-5468.337 -6391.167)" fill="#dbdbdb"/>
      </g>
      <g id="Group_60" data-name="Group 60" transform="translate(43.091 37.626)">
        <path id="Path_165" data-name="Path 165" d="M5485.707,6401.734a5.3,5.3,0,1,1,4.72-5.817A5.3,5.3,0,0,1,5485.707,6401.734Z" transform="translate(-5479.86 -6391.168)" fill="#dbdbdb"/>
      </g>
      <g id="Group_61" data-name="Group 61" transform="translate(86.179 37.626)">
        <path id="Path_166" data-name="Path 166" d="M5497.232,6401.734a5.3,5.3,0,1,1,4.718-5.817A5.3,5.3,0,0,1,5497.232,6401.734Z" transform="translate(-5491.385 -6391.168)" fill="#dbdbdb"/>
      </g>
      <g id="Group_62" data-name="Group 62" transform="translate(172.357 37.626)">
        <path id="Path_167" data-name="Path 167" d="M5520.28,6401.734a5.3,5.3,0,1,1,4.717-5.817A5.3,5.3,0,0,1,5520.28,6401.734Z" transform="translate(-5514.433 -6391.168)" fill="#dbdbdb"/>
      </g>
      <g id="Group_63" data-name="Group 63" transform="translate(129.268 37.626)">
        <path id="Path_168" data-name="Path 168" d="M5508.757,6401.734a5.3,5.3,0,1,1,4.717-5.817A5.3,5.3,0,0,1,5508.757,6401.734Z" transform="translate(-5502.91 -6391.168)" fill="#dbdbdb"/>
      </g>
    </g>
    <g id="Group_75" data-name="Group 75" transform="translate(5468.337 6458.791)">
      <g id="Group_65" data-name="Group 65">
        <path id="Path_169" data-name="Path 169" d="M5478.933,6407.179a5.3,5.3,0,1,1-5.3-5.3A5.3,5.3,0,0,1,5478.933,6407.179Z" transform="translate(-5468.337 -6401.882)" fill="#dbdbdb"/>
      </g>
      <g id="Group_66" data-name="Group 66" transform="translate(43.091 0.002)">
        <path id="Path_170" data-name="Path 170" d="M5485.707,6412.448a5.3,5.3,0,1,1,4.72-5.819A5.3,5.3,0,0,1,5485.707,6412.448Z" transform="translate(-5479.86 -6401.881)" fill="#dbdbdb"/>
      </g>
      <g id="Group_67" data-name="Group 67" transform="translate(86.179 0.002)">
        <path id="Path_171" data-name="Path 171" d="M5497.232,6412.448a5.3,5.3,0,1,1,4.718-5.819A5.3,5.3,0,0,1,5497.232,6412.448Z" transform="translate(-5491.385 -6401.881)" fill="#dbdbdb"/>
      </g>
      <g id="Group_68" data-name="Group 68" transform="translate(172.357 0.002)">
        <path id="Path_172" data-name="Path 172" d="M5520.28,6412.448a5.3,5.3,0,1,1,4.717-5.819A5.3,5.3,0,0,1,5520.28,6412.448Z" transform="translate(-5514.433 -6401.881)" fill="#dbdbdb"/>
      </g>
      <g id="Group_69" data-name="Group 69" transform="translate(129.268 0.002)">
        <path id="Path_173" data-name="Path 173" d="M5508.757,6412.448a5.3,5.3,0,1,1,4.717-5.819A5.3,5.3,0,0,1,5508.757,6412.448Z" transform="translate(-5502.91 -6401.881)" fill="#dbdbdb"/>
      </g>
      <g id="Group_70" data-name="Group 70" transform="translate(0 37.63)">
        <path id="Path_174" data-name="Path 174" d="M5478.933,6417.243a5.3,5.3,0,1,1-5.3-5.3A5.3,5.3,0,0,1,5478.933,6417.243Z" transform="translate(-5468.337 -6411.946)" fill="#dbdbdb"/>
      </g>
      <g id="Group_71" data-name="Group 71" transform="translate(43.091 37.632)">
        <path id="Path_175" data-name="Path 175" d="M5485.707,6422.513a5.3,5.3,0,1,1,4.72-5.819A5.3,5.3,0,0,1,5485.707,6422.513Z" transform="translate(-5479.86 -6411.946)" fill="#dbdbdb"/>
      </g>
      <g id="Group_72" data-name="Group 72" transform="translate(86.179 37.632)">
        <path id="Path_176" data-name="Path 176" d="M5497.232,6422.513a5.3,5.3,0,1,1,4.718-5.819A5.3,5.3,0,0,1,5497.232,6422.513Z" transform="translate(-5491.385 -6411.946)" fill="#dbdbdb"/>
      </g>
      <g id="Group_73" data-name="Group 73" transform="translate(172.357 37.632)">
        <path id="Path_177" data-name="Path 177" d="M5520.28,6422.513a5.3,5.3,0,1,1,4.717-5.819A5.3,5.3,0,0,1,5520.28,6422.513Z" transform="translate(-5514.433 -6411.946)" fill="#dbdbdb"/>
      </g>
      <g id="Group_74" data-name="Group 74" transform="translate(129.268 37.632)">
        <path id="Path_178" data-name="Path 178" d="M5508.757,6422.513a5.3,5.3,0,1,1,4.717-5.819A5.3,5.3,0,0,1,5508.757,6422.513Z" transform="translate(-5502.91 -6411.946)" fill="#dbdbdb"/>
      </g>
    </g>
    <g id="Group_86" data-name="Group 86" transform="translate(5468.337 6529.569)">
      <g id="Group_76" data-name="Group 76">
        <path id="Path_179" data-name="Path 179" d="M5478.933,6426.109a5.3,5.3,0,1,1-5.3-5.3A5.3,5.3,0,0,1,5478.933,6426.109Z" transform="translate(-5468.337 -6420.81)" fill="#dbdbdb"/>
      </g>
      <g id="Group_77" data-name="Group 77" transform="translate(43.091)">
        <path id="Path_180" data-name="Path 180" d="M5485.707,6431.377a5.3,5.3,0,1,1,4.72-5.817A5.3,5.3,0,0,1,5485.707,6431.377Z" transform="translate(-5479.86 -6420.81)" fill="#dbdbdb"/>
      </g>
      <g id="Group_78" data-name="Group 78" transform="translate(86.179)">
        <path id="Path_181" data-name="Path 181" d="M5497.232,6431.377a5.3,5.3,0,1,1,4.718-5.817A5.3,5.3,0,0,1,5497.232,6431.377Z" transform="translate(-5491.385 -6420.81)" fill="#dbdbdb"/>
      </g>
      <g id="Group_79" data-name="Group 79" transform="translate(172.357)">
        <path id="Path_182" data-name="Path 182" d="M5520.28,6431.377a5.3,5.3,0,1,1,4.717-5.817A5.3,5.3,0,0,1,5520.28,6431.377Z" transform="translate(-5514.433 -6420.81)" fill="#dbdbdb"/>
      </g>
      <g id="Group_80" data-name="Group 80" transform="translate(129.268)">
        <path id="Path_183" data-name="Path 183" d="M5508.757,6431.377a5.3,5.3,0,1,1,4.717-5.817A5.3,5.3,0,0,1,5508.757,6431.377Z" transform="translate(-5502.91 -6420.81)" fill="#dbdbdb"/>
      </g>
      <g id="Group_81" data-name="Group 81" transform="translate(0 37.63)">
        <path id="Path_184" data-name="Path 184" d="M5478.933,6436.168a5.3,5.3,0,1,1-5.3-5.294A5.3,5.3,0,0,1,5478.933,6436.168Z" transform="translate(-5468.337 -6430.874)" fill="#dbdbdb"/>
      </g>
      <g id="Group_82" data-name="Group 82" transform="translate(43.091 37.626)">
        <path id="Path_185" data-name="Path 185" d="M5485.707,6441.44a5.3,5.3,0,1,1,4.72-5.814A5.293,5.293,0,0,1,5485.707,6441.44Z" transform="translate(-5479.86 -6430.874)" fill="#dbdbdb"/>
      </g>
      <g id="Group_83" data-name="Group 83" transform="translate(86.179 37.626)">
        <path id="Path_186" data-name="Path 186" d="M5497.232,6441.44a5.3,5.3,0,1,1,4.718-5.814A5.292,5.292,0,0,1,5497.232,6441.44Z" transform="translate(-5491.385 -6430.874)" fill="#dbdbdb"/>
      </g>
      <g id="Group_84" data-name="Group 84" transform="translate(172.357 37.626)">
        <path id="Path_187" data-name="Path 187" d="M5520.28,6441.44a5.3,5.3,0,1,1,4.717-5.814A5.293,5.293,0,0,1,5520.28,6441.44Z" transform="translate(-5514.433 -6430.874)" fill="#dbdbdb"/>
      </g>
      <g id="Group_85" data-name="Group 85" transform="translate(129.268 37.626)">
        <path id="Path_188" data-name="Path 188" d="M5508.757,6441.44a5.3,5.3,0,1,1,4.717-5.814A5.293,5.293,0,0,1,5508.757,6441.44Z" transform="translate(-5502.91 -6430.874)" fill="#dbdbdb"/>
      </g>
    </g>
    <g id="Group_97" data-name="Group 97" transform="translate(5468.337 6607.256)">
      <g id="Group_87" data-name="Group 87" transform="translate(0 0.002)">
        <path id="Path_189" data-name="Path 189" d="M5478.933,6446.882a5.3,5.3,0,1,1-5.3-5.294A5.3,5.3,0,0,1,5478.933,6446.882Z" transform="translate(-5468.337 -6441.588)" fill="#dbdbdb"/>
      </g>
      <g id="Group_88" data-name="Group 88" transform="translate(43.091)">
        <path id="Path_190" data-name="Path 190" d="M5485.707,6452.154a5.3,5.3,0,1,1,4.72-5.819A5.3,5.3,0,0,1,5485.707,6452.154Z" transform="translate(-5479.86 -6441.587)" fill="#dbdbdb"/>
      </g>
      <g id="Group_89" data-name="Group 89" transform="translate(86.179)">
        <path id="Path_191" data-name="Path 191" d="M5497.232,6452.154a5.3,5.3,0,1,1,4.718-5.819A5.3,5.3,0,0,1,5497.232,6452.154Z" transform="translate(-5491.385 -6441.587)" fill="#dbdbdb"/>
      </g>
      <g id="Group_90" data-name="Group 90" transform="translate(172.357)">
        <path id="Path_192" data-name="Path 192" d="M5520.28,6452.154a5.3,5.3,0,1,1,4.717-5.819A5.3,5.3,0,0,1,5520.28,6452.154Z" transform="translate(-5514.433 -6441.587)" fill="#dbdbdb"/>
      </g>
      <g id="Group_91" data-name="Group 91" transform="translate(129.268)">
        <path id="Path_193" data-name="Path 193" d="M5508.757,6452.154a5.3,5.3,0,1,1,4.717-5.819A5.3,5.3,0,0,1,5508.757,6452.154Z" transform="translate(-5502.91 -6441.587)" fill="#dbdbdb"/>
      </g>
      <g id="Group_92" data-name="Group 92" transform="translate(0 37.628)">
        <path id="Path_194" data-name="Path 194" d="M5478.933,6456.95a5.3,5.3,0,1,1-5.3-5.3A5.3,5.3,0,0,1,5478.933,6456.95Z" transform="translate(-5468.337 -6451.65)" fill="#dbdbdb"/>
      </g>
      <g id="Group_93" data-name="Group 93" transform="translate(43.091 37.63)">
        <path id="Path_195" data-name="Path 195" d="M5485.707,6462.216a5.3,5.3,0,1,1,4.72-5.816A5.293,5.293,0,0,1,5485.707,6462.216Z" transform="translate(-5479.86 -6451.652)" fill="#dbdbdb"/>
      </g>
      <g id="Group_94" data-name="Group 94" transform="translate(86.179 37.63)">
        <path id="Path_196" data-name="Path 196" d="M5497.232,6462.216a5.3,5.3,0,1,1,4.718-5.816A5.293,5.293,0,0,1,5497.232,6462.216Z" transform="translate(-5491.385 -6451.652)" fill="#dbdbdb"/>
      </g>
      <g id="Group_95" data-name="Group 95" transform="translate(172.357 37.63)">
        <path id="Path_197" data-name="Path 197" d="M5520.28,6462.216A5.3,5.3,0,1,1,5525,6456.4,5.294,5.294,0,0,1,5520.28,6462.216Z" transform="translate(-5514.433 -6451.652)" fill="#dbdbdb"/>
      </g>
      <g id="Group_96" data-name="Group 96" transform="translate(129.268 37.63)">
        <path id="Path_198" data-name="Path 198" d="M5508.757,6462.216a5.3,5.3,0,1,1,4.717-5.816A5.293,5.293,0,0,1,5508.757,6462.216Z" transform="translate(-5502.91 -6451.652)" fill="#dbdbdb"/>
      </g>
    </g>
  </g>
</svg>
