<svg xmlns="http://www.w3.org/2000/svg" width="24.613" height="24.613" viewBox="0 0 24.613 24.613">
  <g id="email" transform="translate(-0.001 -0.005)">
    <g id="Group_94" data-name="Group 94" transform="translate(0.001 0.004)">
      <g id="Group_93" data-name="Group 93" transform="translate(0 0)">
        <path id="Path_314" data-name="Path 314" d="M24.609,9.414a.388.388,0,0,0-.017-.083.41.41,0,0,0-.023-.071.368.368,0,0,0-.041-.063.387.387,0,0,0-.055-.064c-.007-.006-.009-.014-.016-.019L20.512,6.05V2.875a1.231,1.231,0,0,0-1.231-1.231H14.835L13.055.262a1.216,1.216,0,0,0-1.5,0L9.779,1.644H5.333A1.231,1.231,0,0,0,4.1,2.875V6.05L.158,9.114c-.007.006-.01.014-.016.019A.385.385,0,0,0,.087,9.2a.366.366,0,0,0-.041.063.4.4,0,0,0-.023.071.389.389,0,0,0-.017.082c0,.009,0,.016,0,.025V23.386a1.217,1.217,0,0,0,.241.724s0,.008.006.011l.013.011a1.225,1.225,0,0,0,.97.484H23.383a1.225,1.225,0,0,0,.973-.486s.008-.005.011-.009,0-.008.006-.011a1.217,1.217,0,0,0,.241-.724V9.438C24.614,9.43,24.609,9.422,24.609,9.414ZM12.061.909a.393.393,0,0,1,.489,0l.946.735H11.117ZM1.334,23.8l10.727-8.332a.394.394,0,0,1,.489,0L23.28,23.8Zm22.46-.64-10.738-8.34a1.217,1.217,0,0,0-1.5,0L.82,23.157V10.063l6.723,5.22a.41.41,0,0,0,.5-.649l-6.83-5.3L4.1,7.089v3.17a.41.41,0,1,0,.82,0V2.874a.41.41,0,0,1,.41-.41H19.281a.41.41,0,0,1,.41.41v7.384a.41.41,0,1,0,.82,0V7.089L23.4,9.332l-6.842,5.313a.41.41,0,1,0,.5.648l6.734-5.229V23.157Z" transform="translate(-0.001 -0.004)" fill="#fff"/>
        <path id="Path_315" data-name="Path 315" d="M163.42,74.8V73.16a4.923,4.923,0,1,0-4.923,4.923.41.41,0,1,0,0-.82,4.1,4.1,0,1,1,4.1-4.1V74.8a.82.82,0,1,1-1.641,0V73.16a.41.41,0,1,0-.82,0,1.641,1.641,0,1,1-1.641-1.641.41.41,0,0,0,0-.82,2.461,2.461,0,1,0,1.659,4.275,1.636,1.636,0,0,0,3.264-.173Z" transform="translate(-146.191 -64.957)" fill="#fff"/>
      </g>
    </g>
  </g>
</svg>
