<svg xmlns="http://www.w3.org/2000/svg" width="23.633" height="23.5" viewBox="0 0 23.633 23.5">
  <g id="fork" transform="translate(0 -0.499)">
    <path id="Path_378" data-name="Path 378" d="M71.143,15.639l1.389-.088h.007a3.269,3.269,0,0,0,2.437-1.423l1.1-1.61A6.5,6.5,0,0,0,77.116,7.75,1.466,1.466,0,0,0,75.74,6.53a6.5,6.5,0,0,0-4.609,1.606L69.664,9.419a3.27,3.27,0,0,0-1.12,2.59s0,0,0,.007l.079,1.389a1.955,1.955,0,0,1-.544,1.465L56.616,26.647a1.666,1.666,0,0,0-.446,1.236,1.915,1.915,0,0,0,1.941,1.861q.076,0,.152-.006a1.666,1.666,0,0,0,1.176-.593l10.315-12.79a1.955,1.955,0,0,1,1.39-.716Zm-1.94.27L58.889,28.7a.964.964,0,0,1-.682.334,1.21,1.21,0,0,1-1.328-1.178.963.963,0,0,1,.248-.715L68.588,15.363a2.666,2.666,0,0,0,.742-2l-.079-1.385a2.564,2.564,0,0,1,.879-2.028L71.6,8.67a5.8,5.8,0,0,1,4.109-1.432.758.758,0,0,1,.711.63,5.793,5.793,0,0,1-.929,4.251l-1.1,1.611a2.565,2.565,0,0,1-1.908,1.115l-1.385.088a2.667,2.667,0,0,0-1.9.978Zm0,0" transform="translate(-53.576 -5.746)" fill="#fff"/>
    <path id="Path_379" data-name="Path 379" d="M299.3,293.993l-7.686-7a.354.354,0,1,0-.477.524l7.684,7a.964.964,0,0,1,.292.7,1.21,1.21,0,0,1-1.255,1.255.964.964,0,0,1-.7-.29l-6.849-7.519a.354.354,0,1,0-.524.477l6.851,7.521a1.666,1.666,0,0,0,1.208.52h.037a1.918,1.918,0,0,0,1.94-1.978,1.667,1.667,0,0,0-.521-1.209Zm0,0" transform="translate(-276.317 -273.182)" fill="#fff"/>
    <path id="Path_380" data-name="Path 380" d="M4.275,9.827a3.28,3.28,0,0,0,2.145.867h.007l1.391,0a1.954,1.954,0,0,1,1.429.631L9.861,12a.354.354,0,1,0,.524-.477l-.614-.674a2.666,2.666,0,0,0-1.95-.861l-1.387,0A2.574,2.574,0,0,1,4.771,9.32L.739,4.528a.122.122,0,0,1,.18-.165l3.67,3.67a.931.931,0,0,0,1.316,0L6.336,7.6h0L7.1,6.835h0L7.533,6.4a.932.932,0,0,0,0-1.316l-3.67-3.67a.122.122,0,0,1,.165-.18L8.822,5.27a2.573,2.573,0,0,1,.665,1.662l0,1.388a2.668,2.668,0,0,0,.862,1.951l.657.6a.354.354,0,1,0,.477-.524l-.656-.6a1.955,1.955,0,0,1-.632-1.43l0-1.391s0-.005,0-.008a3.28,3.28,0,0,0-.867-2.145A.354.354,0,0,0,9.3,4.742L4.485.7A.831.831,0,0,0,3.363,1.919l3.67,3.67a.222.222,0,0,1,0,.314l-.181.181-4.09-4.09a.354.354,0,1,0-.5.5l4.09,4.09-.265.265L2,2.759a.354.354,0,1,0-.5.5l4.09,4.09L5.4,7.531a.222.222,0,0,1-.314,0L1.42,3.861A.831.831,0,0,0,.2,4.984l4.047,4.81a.33.33,0,0,0,.031.032Zm0,0" transform="translate(0)" fill="#fff"/>
  </g>
</svg>
