<svg xmlns="http://www.w3.org/2000/svg" width="27.659" height="23" viewBox="0 0 27.659 23">
  <g id="gift-card" transform="translate(0.001 -43.12)">
    <g id="Group_140" data-name="Group 140" transform="translate(-0.001 43.12)">
      <path id="Path_381" data-name="Path 381" d="M27.518,52.067a1.746,1.746,0,0,0-.959-.944l-.486-.2V48.357A1.76,1.76,0,0,0,24.315,46.6H15.392l-5.118-2.073a.406.406,0,1,0-.3.752L13.23,46.6H4.743l.841-2.076A.947.947,0,0,1,6.817,44l1.648.668a.406.406,0,1,0,.3-.752l-1.648-.668a1.76,1.76,0,0,0-2.29.969L3.867,46.6H3.343a1.76,1.76,0,0,0-1.758,1.758v3.877L.129,55.828a1.758,1.758,0,0,0,.969,2.29l.486.2v2.569a1.76,1.76,0,0,0,1.758,1.758H5.075a.406.406,0,0,0,0-.812H3.343a.947.947,0,0,1-.946-.946V53.628H7.731a7.765,7.765,0,0,0-2.715,3.867.406.406,0,0,0,.781.223,7.249,7.249,0,0,1,2.862-3.762v7.874H6.7a.406.406,0,0,0,0,.812h5.567L16.3,64.275a.406.406,0,1,0,.3-.752l-2.176-.882h8.486l-.841,2.076a.948.948,0,0,1-1.232.522l-2.728-1.105a.406.406,0,1,0-.3.752l2.728,1.105a1.758,1.758,0,0,0,2.29-.969l.964-2.381h.525a1.76,1.76,0,0,0,1.758-1.758V57.006l1.456-3.593a1.747,1.747,0,0,0-.011-1.346ZM1.4,57.365a.946.946,0,0,1-.522-1.232l.7-1.736v3.042Zm3.644-6.058c-.07-.164-.12-.425.247-.806a.718.718,0,0,1,.63-.25c.491.074,1.139.641,1.825,1.6.238.332.446.662.606.932C6.8,52.629,5.344,52.005,5.048,51.307Zm3.612.424c-.644-.968-1.611-2.131-2.614-2.282a1.5,1.5,0,0,0-1.336.489,1.534,1.534,0,0,0-.41,1.687,2.647,2.647,0,0,0,1.247,1.192H2.4V48.357a.947.947,0,0,1,.946-.946H8.659v4.32Zm16.6,9.152a.947.947,0,0,1-.946.946H9.471V53.955a7.249,7.249,0,0,1,2.862,3.762.406.406,0,0,0,.781-.223A7.765,7.765,0,0,0,10.4,53.628H25.261Zm-15.486-8.1c.159-.267.364-.594.6-.924.688-.961,1.338-1.531,1.83-1.606a.718.718,0,0,1,.63.25c.367.38.317.642.247.806-.3.7-1.752,1.322-3.308,1.474Zm15.486.035H12.583a2.648,2.648,0,0,0,1.247-1.192,1.534,1.534,0,0,0-.41-1.687,1.5,1.5,0,0,0-1.336-.489c-1,.151-1.969,1.314-2.614,2.282v-4.32H24.315a.947.947,0,0,1,.946.946v4.459Zm1.515.292-.7,1.736V51.8l.181.073a.946.946,0,0,1,.522,1.232Z" transform="translate(0.001 -43.12)" fill="#fff"/>
      <path id="Path_382" data-name="Path 382" d="M365.312,261.081v.389a.406.406,0,0,0,.812,0v-.378a1.34,1.34,0,0,0,.65-.33,1.4,1.4,0,0,0,.423-1.007,1.263,1.263,0,0,0-.281-.817,1.665,1.665,0,0,0-1.151-.535c-.482-.053-.554-.3-.554-.445a.477.477,0,0,1,.506-.506.534.534,0,0,1,.478.24.407.407,0,0,0,.376.252.411.411,0,0,0,.365-.586,1.3,1.3,0,0,0-.813-.662v-.4a.406.406,0,0,0-.812,0v.4a1.2,1.2,0,0,0-.669.479,1.449,1.449,0,0,0-.244.784,1.277,1.277,0,0,0,1.277,1.252c.709.078.709.417.709.545a.588.588,0,0,1-.168.415.7.7,0,0,1-.542.145.648.648,0,0,1-.64-.387h0a.406.406,0,1,0-.775.24,1.4,1.4,0,0,0,1.052.912Z" transform="translate(-344.559 -244.399)" fill="#fff"/>
    </g>
  </g>
</svg>
