<svg xmlns="http://www.w3.org/2000/svg" width="70.43" height="66.907" viewBox="0 0 70.43 66.907">
  <g id="home-delivery" transform="translate(-16 -32)">
    <path id="Path_296" data-name="Path 296" d="M81.836,32H62.851a4.6,4.6,0,0,0-4.593,4.593V57.353a45.309,45.309,0,0,1-5.939-1.272,3.627,3.627,0,0,0-4.238,1.865,1.18,1.18,0,0,0-.092.256l-.264,1.121a1.167,1.167,0,0,0-.031.27v2.757a4.864,4.864,0,0,0,3.925,4.774,16.385,16.385,0,0,0-3.926,10.658V81.3H46a33.138,33.138,0,0,1-4.665-19.2l.421-6.736a5.9,5.9,0,0,0,3.583-2.24h4.7a3.521,3.521,0,0,0,0-7.043h-4.7a5.9,5.9,0,0,0-4.1-2.314l2.53-5.9h1.68c.381,2.047,1.745,3.521,3.415,3.521,1.975,0,3.521-2.062,3.521-4.7S50.842,32,48.867,32c-1.67,0-3.033,1.474-3.415,3.521H43a1.174,1.174,0,0,0-1.079.712L38.7,43.738h-9.79a1.174,1.174,0,0,0-1.174,1.174V54.3a1.174,1.174,0,0,0,1.174,1.174h5.414l-6.27,18.811A12.928,12.928,0,0,0,16,87.17a1.174,1.174,0,0,0,1.174,1.174h3.864a8.217,8.217,0,1,0,15.749,0H65.643a8.217,8.217,0,1,0,15.749,0h3.864A1.174,1.174,0,0,0,86.43,87.17V81.3a16.345,16.345,0,0,0-1.174-6.1V68.279a3.416,3.416,0,0,0-3.412-3.412H78.756a4.678,4.678,0,0,0,0-4.7h6.5A1.174,1.174,0,0,0,86.43,59v-22.4A4.6,4.6,0,0,0,81.836,32ZM48.867,34.348c.479,0,1.174.915,1.174,2.348s-.7,2.348-1.174,2.348-1.174-.915-1.174-2.348S48.389,34.348,48.867,34.348ZM41.824,48.434h8.217a1.174,1.174,0,0,1,0,2.348H41.824a1.174,1.174,0,0,1,0-2.348Zm-11.738,4.7V46.086h2.348v4.7h2.348v-4.7H40.65a3.487,3.487,0,0,1,.582.051,3.521,3.521,0,0,0,0,6.941,3.488,3.488,0,0,1-.582.051ZM28.912,96.561a5.866,5.866,0,0,1-5.378-8.217H26.29a3.521,3.521,0,1,0,5.244,0H34.29a5.867,5.867,0,0,1-5.378,8.217Zm-1.174-5.869a1.174,1.174,0,1,1,1.174,1.174,1.174,1.174,0,0,1-1.174-1.174ZM18.412,86a10.565,10.565,0,0,1,21,0ZM73.518,96.561a5.867,5.867,0,0,1-5.378-8.217H70.9a3.521,3.521,0,1,0,5.244,0H78.9a5.867,5.867,0,0,1-5.378,8.217Zm-1.174-5.869a1.174,1.174,0,1,1,1.174,1.174A1.174,1.174,0,0,1,72.344,90.691ZM63.018,86a10.565,10.565,0,0,1,21,0Zm10.5-11.738A12.929,12.929,0,0,0,60.659,86H41.77a12.936,12.936,0,0,0-11.262-11.64L36.8,55.477h2.6L39,61.958A35.482,35.482,0,0,0,44.35,83.1a1.174,1.174,0,0,0,1,.552h3.521a1.174,1.174,0,0,0,1.174-1.174v-4.7A14.052,14.052,0,0,1,54.81,67.215h6.73A16.44,16.44,0,0,0,53.562,81.3v2.348H55.91V81.3a14.086,14.086,0,0,1,28.07-1.687A12.9,12.9,0,0,0,73.518,74.258Zm8.327-7.043a1.065,1.065,0,0,1,1.064,1.064v2.867a16.561,16.561,0,0,0-4.456-3.931Zm2.238-9.391H70v2.348h4.7a2.348,2.348,0,1,1,0,4.7H52.56a2.519,2.519,0,0,1-2.519-2.519v-2.62l.2-.834a1.277,1.277,0,0,1,1.437-.556,47.661,47.661,0,0,0,13.095,1.834h2.879V57.824H64.769q-2.088,0-4.164-.193V39.043H81.734V36.7H60.605v-.1a2.248,2.248,0,0,1,2.246-2.246H81.836a2.248,2.248,0,0,1,2.246,2.246Z" fill="#ff8c00"/>
    <path id="Path_297" data-name="Path 297" d="M353.607,96H337.174A1.174,1.174,0,0,0,336,97.174a8.227,8.227,0,0,0,4.7,7.422v4.316a1.174,1.174,0,0,0,1.174,1.174h7.043a1.174,1.174,0,0,0,1.174-1.174V104.6a8.227,8.227,0,0,0,4.7-7.422A1.174,1.174,0,0,0,353.607,96Zm-5.869,11.738h-4.7v-2.433a8.239,8.239,0,0,0,1.174.085h2.348a8.238,8.238,0,0,0,1.174-.085Zm-1.174-4.7h-2.348a5.879,5.879,0,0,1-5.752-4.7h13.851A5.88,5.88,0,0,1,346.564,103.043Z" transform="translate(-273.047 -54.609)" fill="#ff8c00"/>
  </g>
</svg>
