<svg xmlns="http://www.w3.org/2000/svg" width="24.691" height="23.456" viewBox="0 0 24.691 23.456">
  <g id="home-delivery" transform="translate(-16 -32)">
    <path id="Path_296" data-name="Path 296" d="M39.08,32H32.425a1.612,1.612,0,0,0-1.61,1.61v7.278a15.885,15.885,0,0,1-2.082-.446,1.271,1.271,0,0,0-1.486.654.414.414,0,0,0-.032.09l-.093.393a.409.409,0,0,0-.011.094v.966a1.705,1.705,0,0,0,1.376,1.673,5.744,5.744,0,0,0-1.376,3.736v1.235h-.592a11.617,11.617,0,0,1-1.635-6.73l.148-2.362a2.069,2.069,0,0,0,1.256-.785h1.647a1.235,1.235,0,0,0,0-2.469H26.287a2.066,2.066,0,0,0-1.438-.811l.887-2.069h.589a1.344,1.344,0,0,0,1.2,1.235c.692,0,1.235-.723,1.235-1.646S28.215,32,27.522,32a1.344,1.344,0,0,0-1.2,1.235h-.86a.412.412,0,0,0-.378.249l-1.128,2.631H20.527a.412.412,0,0,0-.412.412v3.292a.412.412,0,0,0,.412.412h1.9l-2.2,6.595A4.532,4.532,0,0,0,16,51.341a.412.412,0,0,0,.412.412h1.355a2.881,2.881,0,1,0,5.521,0H33.4a2.881,2.881,0,1,0,5.521,0h1.355a.412.412,0,0,0,.412-.412V49.284a5.73,5.73,0,0,0-.412-2.138V44.718a1.2,1.2,0,0,0-1.2-1.2H38a1.64,1.64,0,0,0,0-1.646h2.279a.412.412,0,0,0,.412-.412V33.61A1.612,1.612,0,0,0,39.08,32Zm-11.558.823c.168,0,.412.321.412.823s-.244.823-.412.823-.412-.321-.412-.823S27.355,32.823,27.522,32.823Zm-2.469,4.938h2.881a.412.412,0,0,1,0,.823H25.053a.412.412,0,0,1,0-.823Zm-4.115,1.646V36.938h.823v1.646h.823V36.938h2.058a1.222,1.222,0,0,1,.2.018,1.234,1.234,0,0,0,0,2.433,1.223,1.223,0,0,1-.2.018Zm-.412,15.226a2.057,2.057,0,0,1-1.885-2.881h.966a1.235,1.235,0,1,0,1.838,0h.966a2.057,2.057,0,0,1-1.885,2.881Zm-.412-2.058a.412.412,0,1,1,.412.412.412.412,0,0,1-.412-.412ZM16.846,50.93a3.7,3.7,0,0,1,7.362,0Zm19.318,3.7a2.057,2.057,0,0,1-1.885-2.881h.966a1.235,1.235,0,1,0,1.838,0h.966a2.057,2.057,0,0,1-1.885,2.881Zm-.412-2.058a.412.412,0,1,1,.412.412A.412.412,0,0,1,35.753,52.576ZM32.483,50.93a3.7,3.7,0,0,1,7.362,0Zm3.681-4.115a4.533,4.533,0,0,0-4.508,4.115H25.034a4.535,4.535,0,0,0-3.948-4.081l2.206-6.619H24.2L24.062,42.5a12.439,12.439,0,0,0,1.877,7.411.412.412,0,0,0,.349.193h1.235a.412.412,0,0,0,.412-.412V48.049a4.926,4.926,0,0,1,1.672-3.7h2.359a5.764,5.764,0,0,0-2.8,4.938v.823h.823v-.823a4.938,4.938,0,0,1,9.841-.592A4.523,4.523,0,0,0,36.164,46.814Zm2.919-2.469a.373.373,0,0,1,.373.373v1.005a5.806,5.806,0,0,0-1.562-1.378Zm.785-3.292H34.93v.823h1.646a.823.823,0,0,1,0,1.646H28.817a.883.883,0,0,1-.883-.883v-.918L28,41.428a.448.448,0,0,1,.5-.2,16.709,16.709,0,0,0,4.591.643h1.009v-.823H33.1q-.732,0-1.46-.068V34.469h7.407v-.823H31.638V33.61a.788.788,0,0,1,.787-.787H39.08a.788.788,0,0,1,.787.787Z" transform="translate(0 0)" fill="#fff"/>
    <path id="Path_297" data-name="Path 297" d="M342.173,96h-5.761a.412.412,0,0,0-.411.412,2.884,2.884,0,0,0,1.646,2.6v1.513a.412.412,0,0,0,.411.412h2.469a.412.412,0,0,0,.411-.412V99.014a2.884,2.884,0,0,0,1.646-2.6A.412.412,0,0,0,342.173,96Zm-2.058,4.115h-1.646v-.853a2.888,2.888,0,0,0,.412.03h.823a2.888,2.888,0,0,0,.412-.03Zm-.412-1.646h-.823a2.061,2.061,0,0,1-2.016-1.646h4.856A2.061,2.061,0,0,1,339.7,98.469Z" transform="translate(-303.539 -60.708)" fill="#fff"/>
  </g>
</svg>
