<svg xmlns="http://www.w3.org/2000/svg" width="26.621" height="26.485" viewBox="0 0 26.621 26.485">
  <g id="Instagram" transform="translate(0)">
    <ellipse id="Ellipse_15" data-name="Ellipse 15" cx="1.828" cy="1.828" rx="1.828" ry="1.828" transform="translate(18.486 4.197)" fill="#fff"/>
    <path id="Path_62" data-name="Path 62" d="M-2111.038,113.379c-.121,2.322-.093,4.663-.4,6.96a6.493,6.493,0,0,1-6.286,5.993,130.454,130.454,0,0,1-13.4.017,6.413,6.413,0,0,1-6.349-6.221,120.339,120.339,0,0,1,0-13.664,6.307,6.307,0,0,1,6.088-6.162,100.252,100.252,0,0,1,13.121-.107c4.54.292,6.828,3.036,7.045,7.7.085,1.822.014,3.651.014,5.477Zm-13.334-10.873c-1.873,0-3.748-.062-5.618.014-3.344.135-5.159,1.917-5.238,5.257-.086,3.652-.1,7.31,0,10.962q.132,5.193,5.291,5.346,5.477.156,10.961,0c3.447-.1,5.231-1.9,5.314-5.327q.133-5.478,0-10.962c-.087-3.4-1.924-5.16-5.36-5.283C-2120.807,102.45-2122.59,102.5-2124.372,102.506Z" transform="translate(2137.659 -100.028)" fill="#fff"/>
    <path id="Path_63" data-name="Path 63" d="M-2107.457,137.148a6.776,6.776,0,0,1-6.914-6.794,6.833,6.833,0,0,1,6.871-6.86,6.818,6.818,0,0,1,6.772,6.815A6.772,6.772,0,0,1-2107.457,137.148Zm-.068-11.232a4.467,4.467,0,0,0-4.443,4.463,4.467,4.467,0,0,0,4.4,4.363,4.439,4.439,0,0,0,4.438-4.314A4.462,4.462,0,0,0-2107.525,125.915Z" transform="translate(2120.758 -117.059)" fill="#fff"/>
  </g>
</svg>
