<svg id="linkedin" xmlns="http://www.w3.org/2000/svg" width="27.892" height="27.892" viewBox="0 0 27.892 27.892">
  <path id="Path_315" data-name="Path 315" d="M26.508,26.663h.007V16.433c0-5-1.077-8.859-6.928-8.859a6.073,6.073,0,0,0-5.47,3.006h-.081V8.041H8.489V26.662h5.776v-9.22c0-2.428.46-4.775,3.467-4.775,2.962,0,3.006,2.771,3.006,4.931v9.066Z" transform="translate(1.376 1.228)" fill="#fff"/>
  <path id="Path_316" data-name="Path 316" d="M.4,7.977H6.179V26.6H.4Z" transform="translate(0.064 1.293)" fill="#fff"/>
  <path id="Path_317" data-name="Path 317" d="M3.349,0A3.365,3.365,0,1,0,6.7,3.349,3.35,3.35,0,0,0,3.349,0Z" transform="translate(0 0)" fill="#fff"/>
</svg>
