<svg xmlns="http://www.w3.org/2000/svg" width="23" height="23" viewBox="0 0 23 23">
  <g id="online-booking" transform="translate(0 -0.001)">
    <path id="Path_383" data-name="Path 383" d="M146.216,298.668a.384.384,0,0,0-.343.212l-.767,1.533a.383.383,0,0,0,.343.555h9.2a.384.384,0,0,0,.343-.555l-.767-1.533a.383.383,0,0,0-.343-.212Zm-.147,1.533.383-.767h7.193l.383.767Zm0,0" transform="translate(-138.549 -285.251)" fill="#fff"/>
    <path id="Path_384" data-name="Path 384" d="M.384,5.367h3.45A.384.384,0,0,0,4.1,5.255l.5-.5L5.863,6.022a.383.383,0,0,0,.271.112H7.667a.383.383,0,0,0,.271-.112L9.2,4.759l.5.5a2.012,2.012,0,0,0,2.842,0,.383.383,0,0,0,0-.542l-4.6-4.6A.383.383,0,0,0,7.667,0H.384A.383.383,0,0,0,0,.384v4.6a.383.383,0,0,0,.383.383Zm7.125,0H6.292l-1.15-1.15.608-.608.879.879a.383.383,0,0,0,.542,0l.879-.879.608.608Zm4.174-.426a1.246,1.246,0,0,1-1.444-.228L7.171,1.646a.383.383,0,1,0-.542.542l.879.879L6.9,3.675,6.021,2.8a.383.383,0,0,0-.542,0l-1.8,1.8H2.684V.767H7.508ZM.767.767h1.15V4.6H.767Zm0,0" transform="translate(0 0)" fill="#fff"/>
    <path id="Path_385" data-name="Path 385" d="M174.884,146.619v-.786h.383v-.767h-1.533v.767h.383v.786a3.838,3.838,0,0,0-3.45,3.814v.383a.383.383,0,0,0,.383.383h6.9a.383.383,0,0,0,.383-.383v-.383a3.838,3.838,0,0,0-3.45-3.814Zm-3.45,3.814a3.067,3.067,0,1,1,6.133,0Zm0,0" transform="translate(-163.001 -138.549)" fill="#fff"/>
    <path id="Path_386" data-name="Path 386" d="M22.617,162.133H13.034v.767h9.2v8.817H.767V162.9h9.2v-.767H.384a.383.383,0,0,0-.383.383V172.1a.383.383,0,0,0,.383.383h9.967v3.181l-3.964,1.442a.383.383,0,0,0,.131.744h9.967a.383.383,0,0,0,.131-.744l-3.964-1.442v-3.181h9.967A.383.383,0,0,0,23,172.1v-9.583a.383.383,0,0,0-.383-.383ZM8.693,177.083l2.108-.767h1.4l2.108.767Zm3.191-1.533h-.767v-3.067h.767Zm0,0" transform="translate(0 -154.849)" fill="#fff"/>
    <path id="Path_387" data-name="Path 387" d="M212.051,206.207l-.571-.511a2.687,2.687,0,0,1,2-.894v.767A1.919,1.919,0,0,0,212.051,206.207Zm0,0" transform="translate(-201.98 -195.6)" fill="#fff"/>
    <path id="Path_388" data-name="Path 388" d="M197.032,245.515h-.767a2.679,2.679,0,0,1,.153-.895l.723.256A1.91,1.91,0,0,0,197.032,245.515Zm0,0" transform="translate(-187.449 -233.632)" fill="#fff"/>
  </g>
</svg>
