<svg xmlns="http://www.w3.org/2000/svg" width="83.534" height="70.455" viewBox="0 0 83.534 70.455">
  <g id="online-shop" transform="translate(0 -40.081)">
    <g id="Group_57" data-name="Group 57" transform="translate(0 40.081)">
      <g id="Group_56" data-name="Group 56">
        <path id="Path_298" data-name="Path 298" d="M78.386,40.081H5.147A5.153,5.153,0,0,0,0,45.228v49.7a5.153,5.153,0,0,0,5.147,5.147H29.918l-1,8.015H24.765a1.224,1.224,0,1,0,0,2.447h34a1.224,1.224,0,1,0,0-2.447H54.618l-1-8.015H78.386a5.153,5.153,0,0,0,5.147-5.147v-49.7A5.153,5.153,0,0,0,78.386,40.081Zm-47,68.008,1-8.015h4.5l.442,1.767a4.574,4.574,0,0,0,8.874,0l.442-1.767h4.5l1,8.015Zm8.028-8.015h4.713l-.293,1.173a2.127,2.127,0,0,1-4.126,0Zm41.676-5.147h0a2.7,2.7,0,0,1-2.7,2.7H5.147a2.7,2.7,0,0,1-2.7-2.7v-49.7a2.7,2.7,0,0,1,2.7-2.7H78.386a2.7,2.7,0,0,1,2.7,2.7Z" transform="translate(0 -40.081)" fill="#ff8c00"/>
      </g>
    </g>
    <g id="Group_59" data-name="Group 59" transform="translate(5.231 45.312)">
      <g id="Group_58" data-name="Group 58" transform="translate(0 0)">
        <path id="Path_299" data-name="Path 299" d="M96.064,72.146H33.288a1.223,1.223,0,0,0-1.224,1.224v47.082a1.223,1.223,0,0,0,1.224,1.224H35.9a1.224,1.224,0,0,0,0-2.447H34.511V74.593H96.064a1.224,1.224,0,1,0,0-2.447Z" transform="translate(-32.064 -72.146)" fill="#ff8c00"/>
      </g>
    </g>
    <g id="Group_61" data-name="Group 61" transform="translate(13.079 45.312)">
      <g id="Group_60" data-name="Group 60" transform="translate(0 0)">
        <path id="Path_300" data-name="Path 300" d="M144.162,72.146h-2.616a1.224,1.224,0,0,0,0,2.447h1.392v44.635H81.386a1.224,1.224,0,1,0,0,2.447h62.776a1.223,1.223,0,0,0,1.224-1.224V73.37A1.223,1.223,0,0,0,144.162,72.146Z" transform="translate(-80.162 -72.146)" fill="#ff8c00"/>
      </g>
    </g>
    <g id="Group_63" data-name="Group 63" transform="translate(22.234 53.159)">
      <g id="Group_62" data-name="Group 62">
        <path id="Path_301" data-name="Path 301" d="M172.467,125.942a1.223,1.223,0,0,0-.908-.468l-28.772-1.308h-.067A2.536,2.536,0,0,0,141.7,122.8l-3.524-2.349a1.224,1.224,0,0,0-1.357,2.036l3.523,2.349a.085.085,0,0,1,.034.047l4.488,15.708a3.854,3.854,0,0,0,.666,1.31l-1.642,3.284a2.515,2.515,0,0,0,.111,2.463,2.541,2.541,0,0,0,.628.691,3.839,3.839,0,1,0,6.91.51H162.7a3.839,3.839,0,1,0,7.013-.318,1.222,1.222,0,0,0-.821-2.13H146.155a.084.084,0,0,1-.075-.122l1.513-3.025a3.84,3.84,0,0,0,.957.122,3.945,3.945,0,0,0,.458-.027l17.194-2.023a5.135,5.135,0,0,0,4.446-4.1l2.057-10.284A1.224,1.224,0,0,0,172.467,125.942Zm-6.2,22.9a1.392,1.392,0,1,1-1.392,1.392A1.394,1.394,0,0,1,166.272,148.845Zm-18.31,0a1.392,1.392,0,1,1-1.392,1.392A1.393,1.393,0,0,1,147.962,148.845Zm-3-16.834-1.533-5.367,4.892.222.848,5.145Zm3.759,8.9a1.386,1.386,0,0,1-1.5-1l-1.559-5.456h3.911l1.028,6.235Zm7.173-.844-2.86.337-.981-5.949h3.841Zm0-8.06h-4.245l-.829-5.031,5.074.231Zm6.2,7.33-3.75.441v-5.324h4.192Zm.664-7.33h-4.413v-4.689l4.818.219Zm5.493,4.729a2.693,2.693,0,0,1-2.332,2.152l-1.341.158.416-4.591H168.7Zm.946-4.729h-3.981l.395-4.359,4.418.2Z" transform="translate(-136.276 -120.241)" fill="#ff8c00"/>
      </g>
    </g>
  </g>
</svg>
