<svg id="Password" xmlns="http://www.w3.org/2000/svg" width="20.792" height="23.763" viewBox="0 0 20.792 23.763">
  <g id="Group_58" data-name="Group 58" transform="translate(0)">
    <path id="Path_154" data-name="Path 154" d="M51.864,16.8a.928.928,0,0,0,.928-.928V12.438A3.717,3.717,0,0,0,49.08,8.725H47.964V5.452a5.571,5.571,0,0,0-11.139,0V8.725H35.713A3.717,3.717,0,0,0,32,12.438V20.05a3.717,3.717,0,0,0,3.713,3.713H49.08a3.717,3.717,0,0,0,3.713-3.713.928.928,0,1,0-1.856,0,1.859,1.859,0,0,1-1.856,1.856H35.713a1.859,1.859,0,0,1-1.856-1.856V12.438a1.859,1.859,0,0,1,1.856-1.856H49.08a1.859,1.859,0,0,1,1.856,1.856v3.434A.928.928,0,0,0,51.864,16.8ZM46.107,8.725H38.682V5.452a3.715,3.715,0,0,1,7.426,0Z" transform="translate(-32)" fill="#3b3b3b"/>
  </g>
</svg>
