<svg xmlns="http://www.w3.org/2000/svg" width="22.617" height="24.783" viewBox="0 0 22.617 24.783">
  <g id="Playstore" transform="translate(130 -509.057)">
    <g id="Group_2" data-name="Group 2" transform="translate(-130 509.057)">
      <path id="Path_17" data-name="Path 17" d="M34.013,49.843A1.317,1.317,0,0,1,32.7,48.529V27.07a1.317,1.317,0,0,1,1.313-1.314,1.291,1.291,0,0,1,.636.168l19.3,10.729a1.312,1.312,0,0,1,0,2.293l-19.3,10.73a1.3,1.3,0,0,1-.636.167Z" transform="translate(-32.352 -25.409)" fill="#28b3ea"/>
      <path id="Path_18" data-name="Path 18" d="M33.789,26.039l1.143-.086,14.386,7.941-3.893,3.863Z" transform="translate(-32.901 -25.508)" fill="#52e895"/>
      <path id="Path_19" data-name="Path 19" d="M66.826,45.163l-5.712-3.219-3.893,3.863L61.156,49.8l5.459-2.918Z" transform="translate(-44.696 -33.558)" fill="#f9e65c"/>
      <path id="Path_20" data-name="Path 20" d="M33.448,61.527l11.806-11.8,3.935,3.992-14.725,8.2Z" transform="translate(-32.729 -37.474)" fill="#f15b6c"/>
      <path id="Path_21" data-name="Path 21" d="M33.661,25.752a.947.947,0,0,1,.466.124l19.3,10.729a.964.964,0,0,1,0,1.685L34.127,49.02a.949.949,0,0,1-.466.124.968.968,0,0,1-.966-.966V26.718a.968.968,0,0,1,.966-.966m0-.7A1.661,1.661,0,0,0,32,26.719V48.178a1.655,1.655,0,0,0,2.465,1.45L53.764,38.9a1.659,1.659,0,0,0,0-2.9l-19.3-10.73a1.646,1.646,0,0,0-.8-.211Z" transform="translate(-32 -25.057)" fill="#472b29"/>
      <path id="Path_22" data-name="Path 22" d="M49.372,42.115a.123.123,0,0,1-.088-.037L41,33.742a.124.124,0,0,1,.177-.175L49.46,41.9a.124.124,0,0,1,0,.176A.126.126,0,0,1,49.372,42.115ZM40.1,32.785a.123.123,0,0,1-.088-.037L38.29,31.017a.124.124,0,1,1,.177-.175l1.721,1.732a.124.124,0,0,1-.088.212Zm-2.406-2.421a.123.123,0,0,1-.088-.037l-3.872-3.9a.124.124,0,0,1,.177-.175l3.872,3.9a.124.124,0,0,1-.088.212Zm-4.03,19.22a.124.124,0,0,1-.088-.212L37.867,45.1a.124.124,0,0,1,.176.176l-4.292,4.274A.126.126,0,0,1,33.663,49.584Z" transform="translate(-32.774 -25.643)" fill="#472b29"/>
      <path id="Path_23" data-name="Path 23" d="M44.37,51.925a.124.124,0,0,1-.088-.212L54.61,41.426a.124.124,0,1,1,.176.176L44.458,51.888A.124.124,0,0,1,44.37,51.925Z" transform="translate(-38.164 -33.279)" fill="#472b29"/>
    </g>
  </g>
</svg>
