<svg xmlns="http://www.w3.org/2000/svg" width="55.557" height="64.322" viewBox="0 0 55.557 64.322">
  <g id="play" transform="translate(-34.883 0)">
    <g id="Group_64" data-name="Group 64" transform="translate(34.883 0)">
      <path id="Path_302" data-name="Path 302" d="M86.263,24.739,48.272,1.321A8.784,8.784,0,0,0,34.883,8.8V55.424a8.876,8.876,0,0,0,8.765,8.9h.039a8.815,8.815,0,0,0,4.554-1.37,2.508,2.508,0,0,0-2.613-4.282,3.849,3.849,0,0,1-1.954.636A3.9,3.9,0,0,1,39.9,55.424V8.8a3.768,3.768,0,0,1,5.742-3.209L83.631,29.01a3.768,3.768,0,0,1-.017,6.427L56.148,52.255a2.508,2.508,0,1,0,2.619,4.278L86.231,39.717a8.784,8.784,0,0,0,.032-14.979Z" transform="translate(-34.883 0)" fill="#ff8c00"/>
    </g>
  </g>
</svg>
