<svg xmlns="http://www.w3.org/2000/svg" width="31.793" height="26.485" viewBox="0 0 31.793 26.485">
  <path id="Twitter" d="M-2113.954,349.979c-.364-3.287.663-5.741,3.324-7.248,2.6-1.473,5.145-1.116,7.577.654a2.886,2.886,0,0,0,2.012.15,21.386,21.386,0,0,1,2.658-.7l-2.118,3.055,2.774-.636a3.088,3.088,0,0,1-.234.533c-2.162,2.888-2.4,3.426-3.094,7.126a18.822,18.822,0,0,1-26.994,13.348c-.38-.192-.725-.452-1.47-.923,3.568,0,6.523-.6,9.21-2.7-2.712-.663-4.842-1.806-5.761-4.607l2.488-.158c-3.026-1.432-4.755-3.338-4.943-6.527l2.688.607c-2.606-2.667-3.363-5.412-1.774-8.829C-2123.907,347.2-2119.557,349.648-2113.954,349.979Z" transform="translate(2129.521 -341.812)" fill="#fff"/>
</svg>
