<svg xmlns="http://www.w3.org/2000/svg" width="29.466" height="29.463" viewBox="0 0 29.466 29.463">
  <g id="usexr" transform="translate(0.25 0.25)">
    <path id="Path_146" data-name="Path 146" d="M14.482,0a14.482,14.482,0,1,0,0,28.963q.654,0,1.3-.058c.4-.036.8-.091,1.2-.16l.152-.027A14.482,14.482,0,0,0,14.482,0ZM13.318,27.946h-.034c-.375-.033-.748-.083-1.117-.148l-.063-.01q-.542-.1-1.072-.238l-.086-.022c-.345-.094-.686-.2-1.023-.323l-.1-.037c-.33-.121-.654-.257-.973-.4-.04-.018-.079-.035-.119-.054-.313-.145-.619-.308-.92-.479l-.128-.072q-.444-.259-.869-.554l-.129-.089c-.279-.2-.551-.408-.815-.627l-.073-.064v-4.07a5.316,5.316,0,0,1,5.31-5.31h6.758a5.316,5.316,0,0,1,5.31,5.31v4.07l-.064.054q-.4.338-.831.64l-.113.078q-.431.3-.882.563l-.114.064c-.305.174-.616.338-.932.486l-.11.048c-.322.148-.648.285-.98.407l-.1.034c-.338.121-.681.231-1.028.325l-.083.021c-.354.094-.712.174-1.073.239l-.062.01c-.37.065-.743.115-1.119.148h-.034c-.386.033-.772.051-1.163.051s-.78-.015-1.166-.048Zm10.818-4.014V20.757a6.283,6.283,0,0,0-6.275-6.275H11.1a6.283,6.283,0,0,0-6.275,6.275v3.175a13.516,13.516,0,1,1,19.309,0Zm0,0" fill="#3b3b3b" stroke="#4d4d4d" stroke-width="0.5"/>
    <path id="Path_147" data-name="Path 147" d="M164.827,64a4.827,4.827,0,1,0,4.827,4.827A4.827,4.827,0,0,0,164.827,64Zm0,8.689a3.862,3.862,0,1,1,3.862-3.862A3.862,3.862,0,0,1,164.827,72.689Zm0,0" transform="translate(-150.346 -60.139)" fill="#3b3b3b" stroke="#4d4d4d" stroke-width="0.5"/>
  </g>
</svg>
